<svg xmlns="http://www.w3.org/2000/svg" width="1600" height="900" viewBox="0 0 1600 900" role="img" aria-labelledby="title desc">
  <title id="title">Connected narrative history</title>
  <desc id="desc">Three revisions of a branching story and a restore preview revealing one missing relationship.</desc>
  <defs>
    <linearGradient id="background" x1="120" y1="38" x2="1490" y2="880" gradientUnits="userSpaceOnUse">
      <stop stop-color="#111D28"/>
      <stop offset="1" stop-color="#090F18"/>
    </linearGradient>
    <linearGradient id="selected" x1="585" y1="96" x2="1018" y2="390" gradientUnits="userSpaceOnUse">
      <stop stop-color="#173039"/>
      <stop offset="1" stop-color="#111C27"/>
    </linearGradient>
    <linearGradient id="inspection" x1="259" y1="495" x2="1373" y2="818" gradientUnits="userSpaceOnUse">
      <stop stop-color="#10232B"/>
      <stop offset="1" stop-color="#101722"/>
    </linearGradient>
    <pattern id="grid" width="52" height="52" patternUnits="userSpaceOnUse">
      <path d="M52 0H0V52" stroke="#D9E9ED" stroke-opacity=".04"/>
    </pattern>
    <filter id="shadow" x="-20%" y="-20%" width="140%" height="160%">
      <feDropShadow dx="0" dy="20" stdDeviation="24" flood-color="#000" flood-opacity=".32"/>
    </filter>
    <filter id="glow" x="-100%" y="-100%" width="300%" height="300%">
      <feGaussianBlur stdDeviation="18"/>
    </filter>
  </defs>

  <rect width="1600" height="900" rx="36" fill="url(#background)"/>
  <rect width="1600" height="900" rx="36" fill="url(#grid)"/>
  <ellipse cx="800" cy="446" rx="470" ry="330" fill="#23C8BF" fill-opacity=".045" filter="url(#glow)"/>

  <g transform="translate(88 54)" stroke-linecap="round" stroke-linejoin="round">
    <circle cx="30" cy="30" r="25" fill="#15353A" stroke="#2CCFC5" stroke-width="3"/>
    <path d="M30 17V30L40 37" fill="none" stroke="#76E7DF" stroke-width="4"/>
    <path d="M16 8L10 18M44 8L50 18" stroke="#76E7DF" stroke-width="3"/>
    <path d="M76 17H268M76 31H222M76 45H180" stroke="#506674" stroke-width="7"/>
  </g>

  <path d="M247 422H1353" stroke="#49616E" stroke-width="3" stroke-linecap="round"/>
  <path d="M247 422H800" stroke="#2CCFC5" stroke-width="4" stroke-linecap="round"/>

  <g filter="url(#shadow)">
    <rect x="91" y="151" width="396" height="224" rx="28" fill="#111A24" stroke="#293B47" stroke-width="2"/>
    <rect x="602" y="117" width="396" height="258" rx="28" fill="url(#selected)" stroke="#2CCFC5" stroke-width="3"/>
    <rect x="1113" y="151" width="396" height="224" rx="28" fill="#111A24" stroke="#293B47" stroke-width="2"/>
  </g>

  <g fill="none" stroke-linecap="round" stroke-linejoin="round">
    <path d="M148 298C204 232 254 333 316 263C354 220 397 228 441 267" stroke="#526B78" stroke-width="4"/>
    <rect x="127" y="273" width="56" height="45" rx="12" fill="#1DB5AC" stroke="none"/>
    <rect x="287" y="286" width="56" height="45" rx="12" fill="#6687FF" stroke="none"/>
    <rect x="414" y="239" width="56" height="45" rx="12" fill="#E7A640" stroke="none"/>

    <path d="M661 291C720 219 776 336 840 255C884 199 936 219 971 267" stroke="#69E5DD" stroke-opacity=".86" stroke-width="5"/>
    <path d="M840 255C847 196 886 172 936 188" stroke="#69E5DD" stroke-opacity=".58" stroke-width="4" stroke-dasharray="8 10"/>
    <rect x="638" y="264" width="60" height="48" rx="13" fill="#1CC7BC" stroke="none"/>
    <rect x="808" y="282" width="60" height="48" rx="13" fill="#6687FF" stroke="none"/>
    <rect x="941" y="239" width="60" height="48" rx="13" fill="#E7A640" stroke="none"/>
    <rect x="908" y="164" width="54" height="43" rx="12" fill="#C66BE6" stroke="none"/>

    <path d="M1171 298C1227 235 1283 330 1341 266C1378 225 1421 231 1465 269" stroke="#526B78" stroke-width="4"/>
    <path d="M1341 266C1351 207 1394 191 1439 210" stroke="#526B78" stroke-width="4" stroke-dasharray="8 10"/>
    <rect x="1149" y="274" width="56" height="45" rx="12" fill="#1DB5AC" stroke="none"/>
    <rect x="1312" y="286" width="56" height="45" rx="12" fill="#6687FF" stroke="none"/>
    <rect x="1438" y="240" width="56" height="45" rx="12" fill="#E7A640" stroke="none"/>
    <circle cx="1439" cy="210" r="15" fill="#111A24" stroke="#E87587" stroke-width="4"/>
    <path d="M1433 204L1445 216M1445 204L1433 216" stroke="#FFADBA" stroke-width="3"/>
  </g>

  <g>
    <circle cx="247" cy="422" r="11" fill="#617785" stroke="#0D151F" stroke-width="5"/>
    <circle cx="800" cy="422" r="17" fill="#2DD4BF" stroke="#0D151F" stroke-width="6"/>
    <circle cx="1353" cy="422" r="11" fill="#617785" stroke="#0D151F" stroke-width="5"/>
    <path d="M785 457L800 472L815 457" fill="none" stroke="#68E4DC" stroke-width="5" stroke-linecap="round" stroke-linejoin="round"/>
  </g>

  <g filter="url(#shadow)">
    <rect x="205" y="503" width="1190" height="312" rx="32" fill="url(#inspection)" stroke="#2A4650" stroke-width="2"/>
  </g>

  <g transform="translate(256 551)">
    <rect width="436" height="216" rx="24" fill="#13222C" stroke="#2B4550" stroke-width="2"/>
    <path d="M62 114C120 55 165 158 224 99C264 59 310 76 366 118" fill="none" stroke="#5BDDD5" stroke-width="5" stroke-linecap="round"/>
    <rect x="38" y="88" width="56" height="48" rx="13" fill="#1CC7BC"/>
    <rect x="194" y="113" width="56" height="48" rx="13" fill="#6687FF"/>
    <rect x="340" y="92" width="56" height="48" rx="13" fill="#E7A640"/>
    <circle cx="62" cy="112" r="8" fill="#D7FFFC"/>
    <path d="M210 129H234M222 117V141" stroke="#F3F5FF" stroke-width="3" stroke-linecap="round"/>
    <path d="M354 127L368 102L382 127H354Z" fill="none" stroke="#FFF8E8" stroke-width="3" stroke-linejoin="round"/>
    <path d="M40 46H183M40 63H132" stroke="#49616E" stroke-width="7" stroke-linecap="round"/>
  </g>

  <g transform="translate(908 551)">
    <rect width="436" height="216" rx="24" fill="#13222C" stroke="#2B4550" stroke-width="2"/>
    <path d="M62 114C120 55 165 158 224 99" fill="none" stroke="#5BDDD5" stroke-width="5" stroke-linecap="round"/>
    <path d="M224 99C264 59 310 76 366 118" fill="none" stroke="#E87587" stroke-width="5" stroke-linecap="round" stroke-dasharray="9 11"/>
    <rect x="38" y="88" width="56" height="48" rx="13" fill="#1CC7BC"/>
    <rect x="194" y="113" width="56" height="48" rx="13" fill="#6687FF"/>
    <rect x="340" y="92" width="56" height="48" rx="13" fill="#202B34" stroke="#E87587" stroke-width="3" stroke-dasharray="7 7"/>
    <circle cx="62" cy="112" r="8" fill="#D7FFFC"/>
    <path d="M210 129H234M222 117V141" stroke="#F3F5FF" stroke-width="3" stroke-linecap="round"/>
    <path d="M356 106L380 130M380 106L356 130" stroke="#FFADBA" stroke-width="4" stroke-linecap="round"/>
    <path d="M40 46H183M40 63H132" stroke="#49616E" stroke-width="7" stroke-linecap="round"/>
  </g>

  <g transform="translate(738 617)" fill="none" stroke-linecap="round" stroke-linejoin="round">
    <circle cx="62" cy="42" r="47" fill="#153238" stroke="#2CCFC5" stroke-width="3"/>
    <path d="M39 42H82M68 28L82 42L68 56" stroke="#75E7DF" stroke-width="5"/>
  </g>

  <g transform="translate(777 744)">
    <circle cx="23" cy="23" r="21" fill="#3A242B" stroke="#E87587" stroke-width="3"/>
    <path d="M23 11V26M23 34V35" stroke="#FFB1BD" stroke-width="4" stroke-linecap="round"/>
  </g>
</svg>
